# xmcd
#
# Track frame offsets: 
#        150
#        19421
#        38268
#        55760
#        77338
#        98285
#        119463
#        135654
#        153283
#        168004
#        183551
#        202937
#        226937
#        240044
#        259570
#        274592
#
# Disc length: 3836 seconds
#
# Revision: 0
# Processed by: cddbd v1.5.2PL0 Copyright (c) Steve Scherf et al.
# Submitted via: ExactAudioCopy v0.99pb5
#
DISCID=ad0efa10
DTITLE=Robin Thicke - Something Else
DYEAR=2008
DGENRE=R&B
TTITLE0=You're My Baby
TTITLE1=Sidestep
TTITLE2=Magic
TTITLE3=Ms. Harmony
TTITLE4=Dreamworld
TTITLE5=Loverman
TTITLE6=Hard On My Love
TTITLE7=The Sweetest Love
TTITLE8=Something Else
TTITLE9=Shadow of Doubt
TTITLE10=Cry No More
TTITLE11=Tie My Hands
TTITLE12=I'm Coming Home
TTITLE13=Ebb and Flow
TTITLE14=Magic Touch Moto (Blanco Remix)
TTITLE15=Everybody's A Star
EXTD=
EXTT0=
EXTT1=
EXTT2=
EXTT3=
EXTT4=
EXTT5=
EXTT6=
EXTT7=
EXTT8=
EXTT9=
EXTT10=
EXTT11=
EXTT12=
EXTT13=
EXTT14=
EXTT15=
PLAYORDER=
